<svg xmlns="http://www.w3.org/2000/svg" width="287" height="328" fill="none" viewBox="0 0 287 328">
  <path fill="#fff" fill-rule="evenodd" d="M22.232 30.897c.938-3.671 5.843-4.383 7.785-1.13l6.55 10.973c.118.196.334.31.562.295l12.753-.818c3.781-.243 5.974 4.202 3.48 7.055l-8.411 9.62a.608.608 0 0 0-.108.626l4.72 11.876c1.398 3.52-2.151 6.98-5.635 5.489L32.18 69.856a.609.609 0 0 0-.628.092l-9.836 8.157c-2.917 2.42-7.303.112-6.962-3.662l1.15-12.727a.609.609 0 0 0-.28-.569L4.823 54.313c-3.202-2.026-2.363-6.91 1.332-7.753l12.46-2.84a.609.609 0 0 0 .454-.442l3.162-12.381Zm4.65.742a.609.609 0 0 0-1.112.161l-3.163 12.382a4.26 4.26 0 0 1-3.18 3.099l-12.46 2.84a.609.609 0 0 0-.19 1.107l10.798 6.834a4.26 4.26 0 0 1 1.964 3.983l-1.15 12.727a.608.608 0 0 0 .995.523l9.836-8.158a4.26 4.26 0 0 1 4.395-.637l11.75 5.026a.609.609 0 0 0 .804-.784L41.45 58.866a4.26 4.26 0 0 1 .752-4.377l8.411-9.62a.609.609 0 0 0-.497-1.008l-12.753.818a4.26 4.26 0 0 1-3.93-2.068L26.882 31.64Z" clip-rule="evenodd"/>
  <path fill="#fff" d="M23.32 31.146c.523-2.045 3.255-2.441 4.337-.629l6.385 10.696a2.373 2.373 0 0 0 2.19 1.151l12.43-.797c2.107-.135 3.328 2.34 1.939 3.93l-8.199 9.377a2.372 2.372 0 0 0-.419 2.438l4.6 11.576c.78 1.962-1.198 3.888-3.138 3.058l-11.453-4.9a2.373 2.373 0 0 0-2.448.356l-9.588 7.952c-1.624 1.347-4.067.062-3.878-2.04L17.2 60.908a2.373 2.373 0 0 0-1.094-2.219L5.579 52.028c-1.783-1.129-1.316-3.85.742-4.319l12.145-2.768a2.373 2.373 0 0 0 1.772-1.726l3.083-12.069Z"/>
  <path fill="#fff" fill-rule="evenodd" d="M218.031 11.71c2.357-1.002 4.752 1.342 3.801 3.72l-3.208 8.023a.41.41 0 0 0 .072.423l5.672 6.517c1.682 1.932.194 4.934-2.362 4.765l-8.622-.572a.412.412 0 0 0-.38.199l-4.445 7.409c-1.318 2.196-4.633 1.708-5.261-.775l-2.121-8.376a.41.41 0 0 0-.306-.3l-8.42-1.938c-2.497-.575-3.057-3.878-.889-5.244l7.311-4.605a.411.411 0 0 0 .19-.384l-.758-8.607c-.225-2.551 2.744-4.105 4.712-2.465l6.638 5.53a.413.413 0 0 0 .425.062l7.951-3.381Zm1.509 2.804a.411.411 0 0 0-.543-.531l-7.951 3.38a2.881 2.881 0 0 1-2.971-.437l-6.638-5.53a.411.411 0 0 0-.673.353l.758 8.606a2.88 2.88 0 0 1-1.334 2.69l-7.31 4.605a.411.411 0 0 0 .127.749l8.42 1.938a2.88 2.88 0 0 1 2.146 2.1l2.12 8.376a.41.41 0 0 0 .751.11l4.446-7.408a2.879 2.879 0 0 1 2.66-1.392l8.621.571a.411.411 0 0 0 .337-.68l-5.672-6.517a2.88 2.88 0 0 1-.502-2.96l3.208-8.023Z" clip-rule="evenodd"/>
  <path fill="#fff" d="M218.283 13.137c1.313-.558 2.647.747 2.118 2.072l-3.127 7.82a1.603 1.603 0 0 0 .279 1.649l5.53 6.352c.937 1.077.107 2.749-1.316 2.654l-8.404-.557c-.6-.04-1.172.26-1.482.775l-4.333 7.222c-.734 1.224-2.58.952-2.931-.431l-2.066-8.165a1.604 1.604 0 0 0-1.196-1.17l-8.207-1.889c-1.391-.32-1.703-2.16-.495-2.92l7.126-4.489c.509-.32.796-.899.743-1.498l-.74-8.39c-.125-1.421 1.529-2.286 2.625-1.373l6.471 5.39c.462.385 1.101.48 1.655.244l7.75-3.296Z"/>
  <path fill="#fff" fill-rule="evenodd" d="M26.322 157.671c1.5-1.13 3.62.115 3.362 1.976l-.866 6.277a.302.302 0 0 0 .125.289l5.19 3.637c1.538 1.078 1.008 3.478-.841 3.809l-6.238 1.116a.3.3 0 0 0-.235.208l-1.856 6.059c-.55 1.797-2.996 2.035-3.882.378l-2.989-5.588a.3.3 0 0 0-.271-.159l-6.336.107c-1.879.032-2.86-2.221-1.559-3.575l4.39-4.57a.301.301 0 0 0 .069-.307l-2.06-5.992c-.611-1.777 1.228-3.407 2.918-2.588l5.703 2.764a.3.3 0 0 0 .313-.03l5.063-3.811Zm1.569 1.729a.302.302 0 0 0-.48-.283l-5.063 3.811a2.11 2.11 0 0 1-2.192.213l-5.702-2.764a.302.302 0 0 0-.417.37l2.06 5.993a2.111 2.111 0 0 1-.475 2.15l-4.39 4.569a.302.302 0 0 0 .222.511l6.336-.108a2.114 2.114 0 0 1 1.899 1.116l2.988 5.588a.302.302 0 0 0 .555-.054l1.855-6.059a2.114 2.114 0 0 1 1.648-1.461l6.238-1.115a.302.302 0 0 0 .12-.544l-5.189-3.638a2.111 2.111 0 0 1-.88-2.018l.867-6.277Z" clip-rule="evenodd"/>
  <path fill="#fff" d="M26.753 158.641c.836-.629 2.016.064 1.873 1.101l-.845 6.119c-.06.437.13.871.49 1.124l5.059 3.546c.857.601.562 1.937-.468 2.122l-6.08 1.087a1.177 1.177 0 0 0-.919.814l-1.809 5.906c-.306 1-1.668 1.133-2.162.21l-2.913-5.447a1.175 1.175 0 0 0-1.058-.621l-6.176.105c-1.046.017-1.593-1.238-.868-1.992l4.28-4.454c.306-.318.408-.78.264-1.198l-2.008-5.841c-.34-.99.684-1.898 1.626-1.441l5.558 2.694c.397.192.869.147 1.221-.119l4.935-3.715Z"/>
  <path fill="#fff" fill-rule="evenodd" d="M128.321 70.67c1.502-1.13 3.62.116 3.363 1.977l-.866 6.277a.302.302 0 0 0 .125.289l5.189 3.637c1.539 1.078 1.009 3.478-.84 3.809l-6.238 1.115a.302.302 0 0 0-.235.21l-1.856 6.058c-.55 1.797-2.996 2.035-3.882.378l-2.989-5.588a.301.301 0 0 0-.271-.16l-6.336.108c-1.879.032-2.861-2.22-1.559-3.576l4.391-4.569a.304.304 0 0 0 .068-.307l-2.06-5.992c-.611-1.777 1.228-3.407 2.918-2.588l5.703 2.764a.3.3 0 0 0 .313-.03l5.062-3.811Zm1.57 1.73a.302.302 0 0 0-.481-.283l-5.062 3.811a2.113 2.113 0 0 1-2.192.213l-5.702-2.764a.302.302 0 0 0-.417.37l2.06 5.993a2.113 2.113 0 0 1-.475 2.15l-4.391 4.57a.302.302 0 0 0 .223.51l6.336-.108a2.113 2.113 0 0 1 1.899 1.116l2.988 5.588a.302.302 0 0 0 .555-.054l1.855-6.059a2.114 2.114 0 0 1 1.648-1.46l6.238-1.116a.302.302 0 0 0 .12-.544l-5.189-3.638a2.114 2.114 0 0 1-.88-2.018l.867-6.278Z" clip-rule="evenodd"/>
  <path fill="#fff" d="M128.753 71.641c.836-.63 2.016.064 1.873 1.101l-.845 6.12c-.06.436.129.87.491 1.124l5.058 3.545c.857.6.562 1.937-.468 2.122l-6.081 1.087a1.177 1.177 0 0 0-.918.814l-1.809 5.906c-.306 1-1.669 1.133-2.162.21l-2.913-5.447a1.178 1.178 0 0 0-1.058-.621l-6.176.105c-1.046.017-1.593-1.237-.868-1.992l4.28-4.454c.306-.318.408-.78.264-1.198l-2.008-5.841c-.34-.99.684-1.898 1.626-1.441l5.558 2.694c.397.192.869.147 1.221-.119l4.935-3.715Z"/>
  <path fill="#fff" fill-rule="evenodd" d="M194.321 115.671c1.502-1.13 3.62.115 3.363 1.976l-.866 6.277a.302.302 0 0 0 .125.289l5.189 3.637c1.539 1.078 1.009 3.478-.84 3.809l-6.238 1.116a.3.3 0 0 0-.235.208l-1.856 6.059c-.55 1.797-2.996 2.035-3.882.378l-2.989-5.588a.3.3 0 0 0-.271-.159l-6.336.107c-1.879.032-2.861-2.221-1.559-3.575l4.391-4.57a.304.304 0 0 0 .068-.307l-2.06-5.992c-.611-1.777 1.228-3.407 2.918-2.588l5.703 2.764a.3.3 0 0 0 .313-.03l5.062-3.811Zm1.57 1.729a.302.302 0 0 0-.481-.283l-5.062 3.811a2.11 2.11 0 0 1-2.192.213l-5.702-2.764a.302.302 0 0 0-.417.37l2.06 5.993a2.113 2.113 0 0 1-.475 2.15l-4.391 4.569a.302.302 0 0 0 .223.511l6.336-.108a2.115 2.115 0 0 1 1.899 1.116l2.988 5.588a.302.302 0 0 0 .555-.054l1.855-6.059a2.115 2.115 0 0 1 1.648-1.461l6.238-1.115a.302.302 0 0 0 .12-.544l-5.189-3.638a2.113 2.113 0 0 1-.88-2.018l.867-6.277Z" clip-rule="evenodd"/>
  <path fill="#fff" d="M194.753 116.641c.836-.629 2.016.064 1.873 1.101l-.845 6.119c-.06.437.129.871.491 1.124l5.058 3.546c.857.601.562 1.937-.468 2.122l-6.081 1.087a1.178 1.178 0 0 0-.918.814l-1.809 5.906c-.306 1-1.669 1.133-2.162.21l-2.913-5.447a1.176 1.176 0 0 0-1.058-.621l-6.176.105c-1.046.017-1.593-1.238-.868-1.992l4.28-4.454c.306-.318.408-.78.264-1.198l-2.008-5.841c-.34-.99.684-1.898 1.626-1.441l5.558 2.694c.397.192.869.147 1.221-.119l4.935-3.715Z"/>
  <path fill="#fff" fill-rule="evenodd" d="M273.321 102.671c1.502-1.13 3.62.115 3.363 1.976l-.866 6.277a.302.302 0 0 0 .125.289l5.189 3.637c1.539 1.078 1.009 3.478-.84 3.809l-6.238 1.116a.3.3 0 0 0-.235.208l-1.856 6.059c-.55 1.797-2.996 2.035-3.882.378l-2.989-5.588a.3.3 0 0 0-.271-.159l-6.336.107c-1.879.032-2.861-2.221-1.559-3.575l4.391-4.57a.304.304 0 0 0 .068-.307l-2.06-5.992c-.611-1.777 1.228-3.407 2.918-2.588l5.703 2.764a.3.3 0 0 0 .313-.03l5.062-3.811Zm1.57 1.729a.302.302 0 0 0-.481-.283l-5.062 3.811a2.11 2.11 0 0 1-2.192.213l-5.702-2.764a.302.302 0 0 0-.417.37l2.06 5.993a2.113 2.113 0 0 1-.475 2.15l-4.391 4.569a.302.302 0 0 0 .223.511l6.336-.108a2.115 2.115 0 0 1 1.899 1.116l2.988 5.588a.302.302 0 0 0 .555-.054l1.855-6.059a2.115 2.115 0 0 1 1.648-1.461l6.238-1.115a.302.302 0 0 0 .12-.544l-5.189-3.638a2.113 2.113 0 0 1-.88-2.018l.867-6.277Z" clip-rule="evenodd"/>
  <path fill="#fff" d="M273.753 103.641c.836-.629 2.016.064 1.873 1.101l-.845 6.119c-.06.437.129.871.491 1.124l5.058 3.546c.857.601.562 1.937-.468 2.122l-6.081 1.087a1.178 1.178 0 0 0-.918.814l-1.809 5.906c-.306 1-1.669 1.133-2.162.21l-2.913-5.447a1.176 1.176 0 0 0-1.058-.621l-6.176.105c-1.046.017-1.593-1.238-.868-1.992l4.28-4.454c.306-.318.408-.78.264-1.198l-2.008-5.841c-.34-.99.684-1.898 1.626-1.441l5.558 2.694c.397.192.869.147 1.221-.119l4.935-3.715Z"/>
  <path stroke="#fff" stroke-linecap="round" stroke-linejoin="round" stroke-width="4" d="M169.333 308.25v-13.167a26.33 26.33 0 0 0-7.713-18.62A26.33 26.33 0 0 0 143 268.75H96.917a26.331 26.331 0 0 0-26.334 26.333v13.167m125.084-85.583v39.5m19.75-19.75h-39.5m-29.625-26.334c0 14.544-11.79 26.334-26.334 26.334-14.543 0-26.333-11.79-26.333-26.334 0-14.543 11.79-26.333 26.333-26.333 14.544 0 26.334 11.79 26.334 26.333Z"/>
</svg>
